{"title":"Speed Dating 2010 LiMiTED.DvDRip.x264.Feel-Free","uid":6147944,"size":960767677,"categoryP":"video","categoryS":"movies","magnet":"?xt=urn:btih:5efe1b11dacb1c8a48d92bc0e9e00614d9faac4e&amp;dn=Speed+Dating+2010+LiMiTED.DvDRip.x264.Feel-Free&amp;tr=udp%3A%2F%2Ftracker.openbittorrent.com%3A80&amp;tr=udp%3A%2F%2Fopen.demonii.com%3A1337&amp;tr=udp%3A%2F%2Ftracker.coppersurfer.tk%3A6969&amp;tr=udp%3A%2F%2Fexodus.desync.com%3A6969","seeders":0,"leechers":0,"uploader":"neon","files":-1,"time":1296762299,"description":"Genre:Comedy\nLanguage:English\n &lt;a href=&quot; http://www.imdb.com/title/tt1343110/&quot; rel=&quot;nofollow&quot; target=&quot;_NEW&quot;&gt; http://www.imdb.com/title/tt1343110/&lt;/a&gt;\nSource:DVD\n\n\nFormat : MPEG-4\nFormat profile : Base Media\nCodec ID : isom\nFile size : 914 MiB\nDuration : 1h 40mn\nOverall bit rate : 1 278 Kbps\nMovie name : Speed.Dating.2010.LiMiTED.DvDRip.x264.Feel-Free\n\n\nVideo\nFormat settings, CABAC : Yes\nFormat settings, ReFrames : 4 frames\nCodec ID : avc1\nCodec ID/Info : Advanced Video Coding\nDuration : 1h 40mn\nBit rate mode : Variable\nBit rate : 895 Kbps\nWidth : 720 pixels\nHeight : 384 pixels\nDisplay aspect ratio : 1.875\nFrame rate mode : Constant\nFrame rate : 23.976 fps\nColor space : YUV\nChroma subsampling : 4:2:0\nBit depth : 8 bits\nScan type : Progressive\nBits/(Pixel*Frame) : 0.135\nStream size : 636 MiB (70%)\nWriting library : x264\n\nAudio\nID : 2\nFormat : AAC\nFormat/Info : Advanced Audio Codec\nFormat version : Version 4\nFormat profile : LC\nCodec ID : 40\nDuration : 1h 39mn\nBit rate mode : Variable\nBit rate : 384 Kbps\nChannel(s) : 6 channels\nChannel positions : Front: L C R, Side: L R, LFE\nSampling rate : 48.0 KHz\nStream size : 274 MiB (30%)\n\n\nPlot:\nLove at first sight... Happens every night.\n &lt;a href=&quot;\nhttp://rapidhdd.com/images/270298vlcsnap-00006.png&quot; rel=&quot;nofollow&quot; target=&quot;_NEW&quot;&gt;\nhttp://rapidhdd.com/images/270298vlcsnap-00006.png&lt;/a&gt; &lt;a href=&quot;\nhttp://www.rapidhdd.com/images/983273vlcsnap-00005.png&quot; rel=&quot;nofollow&quot; target=&quot;_NEW&quot;&gt;\nhttp://www.rapidhdd.com/images/983273vlcsnap-00005.png&lt;/a&gt; &lt;a href=&quot;\nhttp://www.rapidhdd.com/images/760652vlcsnap-00002.png&quot; rel=&quot;nofollow&quot; target=&quot;_NEW&quot;&gt;\nhttp://www.rapidhdd.com/images/760652vlcsnap-00002.png&lt;/a&gt; &lt;a href=&quot;\nhttp://www.rapidhdd.com/images/877132vlcsnap-00004.png&quot; rel=&quot;nofollow&quot; target=&quot;_NEW&quot;&gt;\nhttp://www.rapidhdd.com/images/877132vlcsnap-00004.png&lt;/a&gt;\n &lt;a href=&quot;\nhttp://www.videodetective.com/movies/trailers/speeddating-trailer/729718&quot; rel=&quot;nofollow&quot; target=&quot;_NEW&quot;&gt;\nhttp://www.videodetective.com/movies/trailers/speeddating-trailer/729718&lt;/a&gt;","torrent":{"xt":"urn:btih:5efe1b11dacb1c8a48d92bc0e9e00614d9faac4e","amp;dn":"Speed+Dating+2010+LiMiTED.DvDRip.x264.Feel-Free","amp;tr":["udp%3A%2F%2Ftracker.openbittorrent.com%3A80","udp%3A%2F%2Fopen.demonii.com%3A1337","udp%3A%2F%2Ftracker.coppersurfer.tk%3A6969","udp%3A%2F%2Fexodus.desync.com%3A6969"],"infoHash":"5efe1b11dacb1c8a48d92bc0e9e00614d9faac4e","infoHashBuffer":{"type":"Buffer","data":[94,254,27,17,218,203,28,138,72,217,43,192,233,224,6,20,217,250,172,78]},"announce":[],"urlList":[]}}